<svg width="73" height="44" viewBox="0 0 73 44" fill="none" xmlns="http://www.w3.org/2000/svg">
<g filter="url(#filter0_d_1003_2304)">
<rect x="7.79248" y="6" width="57.2076" height="27.4596" rx="4.5766" fill="white"/>
<rect x="8.07852" y="6.28604" width="56.6355" height="26.8876" rx="4.29057" stroke="#EFEFEF" stroke-width="0.572076"/>
</g>
<g clip-path="url(#clip0_1003_2304)">
<path fill-rule="evenodd" clip-rule="evenodd" d="M22.9273 15.1932C22.7889 14.9686 22.6097 14.7742 22.3984 14.6188C22.1836 14.472 21.9498 14.3569 21.7021 14.2792C21.434 14.191 21.1569 14.1324 20.8749 14.1041C20.5457 14.0727 20.2165 14.0562 19.8857 14.0577H17.024C16.7435 14.0324 16.4979 14.2431 16.4799 14.5246C16.4799 14.5246 16.4799 14.5411 16.4799 14.5499V19.214C16.8764 20.0678 17.5349 20.7725 18.3609 21.2244V20.2877C18.334 19.9841 18.5575 19.7163 18.8615 19.691H19.7201C20.8899 19.691 21.7843 19.4441 22.4011 18.9521C23.017 18.46 23.3298 17.7316 23.3386 16.7635C23.3401 16.4856 23.3073 16.2073 23.2417 15.9365C23.1765 15.6734 23.0704 15.4232 22.9273 15.1932ZM21.2508 17.5907C21.1509 17.7631 21.0016 17.9021 20.8245 17.9901C20.6308 18.0831 20.422 18.1384 20.2087 18.1531C19.9749 18.1831 19.7379 18.1981 19.5026 18.1965H18.6783C18.48 18.1965 18.358 18.0368 18.358 17.8001V15.8767C18.3446 15.6972 18.4996 15.5505 18.6783 15.5715H19.5026C19.7692 15.5715 20.0211 15.5791 20.2564 15.5956C20.4682 15.6044 20.6754 15.6554 20.8662 15.7451C21.0437 15.8227 21.191 15.9559 21.2878 16.1233C21.3969 16.3478 21.4473 16.5978 21.434 16.8475C21.4384 17.1062 21.3758 17.362 21.2508 17.588V17.5907ZM18.3621 21.5055C17.6575 21.2497 17.0149 20.8445 16.4799 20.3164V22.5704C16.4543 22.7516 16.584 22.9177 16.766 22.9357H18.0596C18.4025 22.9357 18.3621 22.5677 18.3621 22.5677V21.5055ZM36.1383 16.5139H35.0234C34.8029 16.499 34.605 16.6471 34.5541 16.8608L33.2573 20.4466C33.2573 20.4466 32.1126 17.1811 32.0263 16.9283C31.9771 16.6874 31.7685 16.5139 31.5243 16.5109H30.4957C30.129 16.5109 30.129 16.7981 30.1783 16.9103C30.2274 17.0225 31.6316 20.8877 32.1814 22.3671C32.2679 22.5498 32.3289 22.7427 32.3617 22.9415C32.3259 23.1374 32.253 23.3259 32.1439 23.4936C32.1024 23.5637 32.0547 23.6311 32.0011 23.6939C33.0607 23.3784 34.2904 22.2265 34.909 20.9834C35.5316 19.2602 36.3532 16.9627 36.3902 16.8444C36.4305 16.6636 36.4305 16.5139 36.1383 16.5139ZM31.1664 24.0439C31.0695 24.0424 30.9741 24.0336 30.8802 24.0213C30.7623 24.0037 30.5388 24.0213 30.5388 24.2219V25.0835C30.5388 25.4141 30.6997 25.4382 30.7819 25.4604C31.0473 25.519 31.3182 25.5472 31.5895 25.5458C31.91 25.5546 32.2274 25.4887 32.5197 25.3543C32.7849 25.2195 33.0218 25.0312 33.2142 24.8021C33.4331 24.5525 33.6183 24.2745 33.7644 23.975C33.9223 23.6578 34.0727 23.3063 34.2158 22.9219L34.3828 22.4643C34.0504 22.7948 32.5854 24.1814 31.1664 24.0439ZM29.4776 17.5444C29.4167 17.3993 29.3331 17.2648 29.2319 17.1449C29.1274 17.0358 29.0099 16.9386 28.8817 16.8578C28.7429 16.7635 28.5956 16.6827 28.4418 16.6173C28.2838 16.5556 28.1228 16.5078 27.9576 16.4706C27.7699 16.4285 27.5776 16.4017 27.3852 16.3882C27.1797 16.3673 26.9484 16.3554 26.6936 16.3554C24.9873 16.3554 24.0171 16.8954 23.7801 17.9752C23.7366 18.1475 23.8559 18.3164 24.032 18.3314H25.0827C25.3689 18.3314 25.3689 18.2432 25.4775 17.9963C25.5252 17.8618 25.6103 17.7435 25.7233 17.6566C25.9919 17.4831 26.3093 17.4008 26.6267 17.4249C26.9247 17.3934 27.2228 17.4683 27.4715 17.6344C27.6608 17.8124 27.7726 18.0574 27.7831 18.3179C27.7831 18.674 27.6745 18.9087 27.233 18.9087C26.1899 18.8712 25.0678 18.9895 24.4355 19.3544C23.8006 19.7436 23.4237 20.4421 23.4447 21.1868C23.4386 21.4709 23.4954 21.7552 23.6145 22.014C23.7248 22.2385 23.8873 22.4359 24.0853 22.5883C24.2956 22.7591 24.5371 22.8863 24.7965 22.9609C25.0883 23.0417 25.3909 23.0805 25.6934 23.0762C26.1022 23.0835 26.5088 23.0253 26.8992 22.904C27.2437 22.7619 27.5698 22.578 27.8694 22.3551V22.5569C27.8694 22.7545 27.9293 22.9327 28.1556 22.9327H29.3719C29.6177 22.9327 29.6745 22.7576 29.6745 22.539V18.7801C29.6761 18.5454 29.6597 18.3117 29.6268 18.0786C29.5986 17.8959 29.5495 17.7167 29.4776 17.5444ZM27.8145 21.2377C27.8145 21.2377 27.5002 21.8988 26.3837 21.8988C26.117 21.9111 25.8515 21.8374 25.6279 21.6896C25.4283 21.5337 25.3212 21.2871 25.3417 21.0344C25.3165 20.6918 25.5043 20.37 25.8145 20.2249C26.2658 20.0499 26.7473 19.9691 27.2318 19.9855C27.5463 19.9392 27.8279 20.1847 27.8264 20.5033L27.8145 21.2377Z" fill="#333333"/>
<path fill-rule="evenodd" clip-rule="evenodd" d="M55.6268 18.8202C55.9145 19.284 55.9145 19.8721 55.6268 20.3371C55.3407 20.7724 53.7805 22.4446 53.2663 22.9819C52.819 23.4468 52.2154 23.9182 51.618 23.9182H39.2295C37.5527 23.9182 37.4531 23.3438 37.4531 22.0634V16.8385C37.4531 15.5265 37.8388 15.1437 38.9866 15.1437H51.6463C52.238 15.1437 52.7684 15.4489 53.3633 16.0636C53.8833 16.5885 55.4197 18.5093 55.6268 18.8202Z" fill="#33CCCC"/>
<path fill-rule="evenodd" clip-rule="evenodd" d="M53.1709 20.7966C52.7954 21.8121 51.8058 22.4643 50.7283 22.4076C49.0795 22.4076 47.9796 21.2811 47.9796 19.5922C47.9796 17.9035 49.1242 16.7202 50.67 16.7202C52.2155 16.7202 53.2454 17.7944 53.311 19.5264C53.311 19.7476 53.2571 19.9438 52.9802 19.9438H49.4821C49.5058 20.8712 49.9488 21.3798 50.7385 21.3798C51.1678 21.3901 51.5627 21.1492 51.7519 20.7652C51.8264 20.6557 51.9504 20.5928 52.0813 20.5943H52.9833C53.0977 20.5899 53.1889 20.6932 53.1679 20.8068L53.1709 20.7966ZM40.2655 17.1629V17.1315C40.2655 16.9626 40.2655 16.7981 39.9794 16.7981H38.9404C38.6974 16.7981 38.6856 16.9296 38.6856 17.1376V18.5154C39.0953 17.9437 39.638 17.4788 40.2655 17.1629ZM47.2227 22.1486V18.7486C47.2227 17.356 46.6103 16.6606 45.3851 16.6606C45.0437 16.6648 44.7113 16.7634 44.4236 16.9478C44.1062 17.1464 43.823 17.395 43.5846 17.6837C43.4774 17.3708 43.2671 17.1047 42.9897 16.9282C42.6739 16.7532 42.3163 16.6677 41.9569 16.6827C41.4265 16.6858 40.9138 16.8639 40.4948 17.1886C40.4025 17.2812 38.6824 18.6246 38.6824 20.0261V22.1545C38.6824 22.2203 38.6482 22.4793 38.9375 22.4793H40.0163C40.3517 22.4793 40.3205 22.2578 40.3205 22.1667V18.7204C40.5008 18.4749 40.8692 17.8931 41.4785 17.8931C41.6768 17.8752 41.8707 17.9663 41.9825 18.1309C42.1046 18.376 42.1584 18.6499 42.1373 18.9237V22.1606C42.1373 22.2265 42.1032 22.4853 42.3922 22.4853H43.4595C43.7934 22.4853 43.762 22.264 43.762 22.171V18.7081C43.957 18.4646 44.3344 17.8808 44.9217 17.8808C45.1226 17.8644 45.3164 17.9545 45.4343 18.1188C45.5581 18.3642 45.6129 18.638 45.5908 18.9118V22.1486C45.5908 22.2146 45.5563 22.4731 45.8456 22.4731H46.9247C47.263 22.4569 47.2227 22.2384 47.2227 22.1486ZM50.6759 17.7913C50.0202 17.7913 49.5775 18.2488 49.4806 19.0014H51.8264C51.7669 18.3431 51.412 17.7913 50.6759 17.7913Z" fill="white"/>
</g>
<defs>
<filter id="filter0_d_1003_2304" x="0.355498" y="0.85132" width="72.0815" height="42.3336" filterUnits="userSpaceOnUse" color-interpolation-filters="sRGB">
<feFlood flood-opacity="0" result="BackgroundImageFix"/>
<feColorMatrix in="SourceAlpha" type="matrix" values="0 0 0 0 0 0 0 0 0 0 0 0 0 0 0 0 0 0 127 0" result="hardAlpha"/>
<feOffset dy="2.2883"/>
<feGaussianBlur stdDeviation="3.71849"/>
<feColorMatrix type="matrix" values="0 0 0 0 0 0 0 0 0 0 0 0 0 0 0 0 0 0 0.05 0"/>
<feBlend mode="normal" in2="BackgroundImageFix" result="effect1_dropShadow_1003_2304"/>
<feBlend mode="normal" in="SourceGraphic" in2="effect1_dropShadow_1003_2304" result="shape"/>
</filter>
<clipPath id="clip0_1003_2304">
<rect width="39.5419" height="11.63" fill="white" transform="translate(16.3965 14.0118)"/>
</clipPath>
</defs>
</svg>
